# xmcd
#
# Track frame offsets:
#	150
#	16337
#	38750
#	51230
#	70405
#	96352
#	118415
#	140182
#	154127
#	168030
#	179912
#
# Disc length: 2939 seconds
#
# Revision: 0
# Processed by: cddbd v1.5.1PL0 Copyright (c) Steve Scherf et al.
# Submitted via: dBpowerAMP V4.0
#
DISCID=a30b790b
DTITLE=David Landon - Doin' It on Your Own
DYEAR=1900
DGENRE=
TTITLE0=Doin' It on Your Own
TTITLE1=She's No Lady
TTITLE2=Hot Little Mama
TTITLE3=It's Only Love
TTITLE4=Free
TTITLE5=It's a Long Way Home
TTITLE6=Southbound
TTITLE7=Human Zoo
TTITLE8=Give Me Back My Heart
TTITLE9=Somewhere Down the Line
TTITLE10=I've Been There Before
EXTD=
EXTT0=
EXTT1=
EXTT2=
EXTT3=
EXTT4=
EXTT5=
EXTT6=
EXTT7=
EXTT8=
EXTT9=
EXTT10=
PLAYORDER=
